<svg width="50" height="44" viewBox="0 0 50 44" fill="none" xmlns="http://www.w3.org/2000/svg">
<path d="M28.8388 23.5358L30.9726 14.1921C31.1267 13.5174 30.6114 12.875 29.9162 12.875H12.1865L11.7727 10.8621C11.6696 10.3603 11.226 10 10.7114 10H6.08333C5.48502 10 5 10.4827 5 11.0781V11.7969C5 12.3923 5.48502 12.875 6.08333 12.875H9.23778L12.4087 28.3027C11.6501 28.7369 11.1389 29.551 11.1389 30.4844C11.1389 31.8737 12.2706 33 13.6667 33C15.0627 33 16.1944 31.8737 16.1944 30.4844C16.1944 29.7803 15.9034 29.1441 15.435 28.6875H24.8983C24.4299 29.1441 24.1389 29.7803 24.1389 30.4844C24.1389 31.8737 25.2706 33 26.6667 33C28.0627 33 29.1945 31.8737 29.1945 30.4844C29.1945 29.4884 28.6127 28.6277 27.769 28.2201L28.018 27.1296C28.1721 26.4549 27.6568 25.8125 26.9617 25.8125H14.8456L14.5501 24.375H27.7824C28.2882 24.375 28.7267 24.0267 28.8388 23.5358Z" fill="white"/>
</svg>
