<svg width="19" height="19" viewBox="0 0 19 19" fill="none" xmlns="http://www.w3.org/2000/svg">
<path d="M16.0013 4.07029C15.0345 2.9763 13.8642 2.41656 12.6684 2.41656C11.32 2.41656 10.1242 3.23071 9.41184 4.5791C8.72491 3.23068 7.50371 2.41656 6.18074 2.41656C4.95954 2.41656 3.84009 2.97627 2.84786 4.07029C1.67755 5.36782 1.01606 8.29361 3.30581 10.4816C4.37437 11.4738 9.18286 16.5367 9.23376 16.5876C9.28465 16.6385 9.33551 16.664 9.41184 16.664C9.48816 16.664 9.56449 16.6385 9.61538 16.5622C9.66628 16.5113 14.5002 11.4738 15.5433 10.4562C17.8076 8.26818 17.1462 5.34236 16.0013 4.07029ZM15.1617 10.1254C14.2204 11.0159 10.3023 15.112 9.41187 16.0534C8.5214 15.0866 4.62881 11.0159 3.66204 10.1C1.60126 8.14096 2.18643 5.57136 3.22952 4.42648C4.11999 3.45969 5.13765 2.95087 6.18077 2.95087C7.45287 2.95087 8.59775 3.84134 9.18289 5.31695C9.20832 5.39328 9.31011 5.4696 9.41187 5.4696C9.51362 5.4696 9.61541 5.39328 9.64084 5.31695C10.226 3.86677 11.3709 2.95087 12.6684 2.95087C13.737 2.95087 14.7292 3.43425 15.5942 4.45194C16.6119 5.57133 17.197 8.16639 15.1617 10.1254Z" fill="#F70D00" stroke="#F70D00" stroke-linecap="round"/>
</svg>
