<svg width="23" height="23" viewBox="0 0 23 23" fill="none" xmlns="http://www.w3.org/2000/svg">
<path d="M19.37 4.92717C18.1997 3.60287 16.783 2.92529 15.3355 2.92529C13.7032 2.92529 12.2557 3.91084 11.3933 5.5431C10.5618 3.9108 9.08346 2.92529 7.48199 2.92529C6.00368 2.92529 4.64856 3.60283 3.44745 4.92717C2.03075 6.49786 1.23 10.0396 4.00181 12.6882C5.29532 13.8894 11.1161 20.0181 11.1777 20.0797C11.2393 20.1413 11.3009 20.1721 11.3933 20.1721C11.4857 20.1721 11.5781 20.1413 11.6397 20.049C11.7013 19.9873 17.5529 13.8894 18.8156 12.6575C21.5566 10.0088 20.7559 6.46704 19.37 4.92717ZM18.3537 12.2571C17.2142 13.335 12.4712 18.2934 11.3933 19.433C10.3154 18.2626 5.60332 13.335 4.43303 12.2263C1.9384 9.85482 2.64676 6.74426 3.90945 5.35835C4.98739 4.18802 6.21929 3.57208 7.48202 3.57208C9.02193 3.57208 10.4078 4.65002 11.1162 6.43629C11.1469 6.52868 11.2702 6.62108 11.3933 6.62108C11.5165 6.62108 11.6397 6.52868 11.6705 6.43629C12.3789 4.68081 13.7648 3.57208 15.3355 3.57208C16.629 3.57208 17.8301 4.15723 18.8772 5.38917C20.1091 6.74422 20.8175 9.88561 18.3537 12.2571Z" fill="#E5E5E5" stroke="#838383" stroke-linecap="round"/>
</svg>
